# Tiled2Unity generated file. Do not modify by hand.
# Wavefront file for 'Fase1_mesh_0006.obj'

# Vertices (Count = 24)
v -14080 -2176 0
v -14208 -2176 0
v -14208 -2048 0
v -14080 -2048 0
v -1920 -2944 0
v -2048 -2944 0
v -2048 -2816 0
v -1920 -2816 0
v -14080 -2944 0
v -14208 -2944 0
v -14208 -2816 0
v -14080 -2816 0
v -1664 -3072 0
v -1792 -3072 0
v -1792 -2944 0
v -1664 -2944 0
v -1408 -3200 0
v -1536 -3200 0
v -1536 -3072 0
v -1408 -3072 0
v -1152 -3328 0
v -1280 -3328 0
v -1280 -3200 0
v -1152 -3200 0

# Texture cooridinates (Count = 4)
vt 0 0
vt 1 0
vt 1 1
vt 0 1

# Normal
vn 0 0 -1

# Mesh description
g Fase1_mesh_0006

# Faces
f 1/1/1 2/2/1 3/3/1 4/4/1
f 5/1/1 6/2/1 7/3/1 8/4/1
f 9/1/1 10/2/1 11/3/1 12/4/1
f 13/1/1 14/2/1 15/3/1 16/4/1
f 17/1/1 18/2/1 19/3/1 20/4/1
f 21/1/1 22/2/1 23/3/1 24/4/1

