# Tiled2Unity generated file. Do not modify by hand.
# Wavefront file for 'Fase1_mesh_0012.obj'

# Vertices (Count = 16)
v -13184 -2560 0
v -13312 -2560 0
v -13312 -2432 0
v -13184 -2432 0
v -2560 -2944 0
v -2688 -2944 0
v -2688 -2816 0
v -2560 -2816 0
v -2816 -3072 0
v -2944 -3072 0
v -2944 -2944 0
v -2816 -2944 0
v -3072 -3200 0
v -3200 -3200 0
v -3200 -3072 0
v -3072 -3072 0

# Texture cooridinates (Count = 4)
vt 0 0
vt 1 0
vt 1 1
vt 0 1

# Normal
vn 0 0 -1

# Mesh description
g Fase1_mesh_0012

# Faces
f 1/1/1 2/2/1 3/3/1 4/4/1
f 5/1/1 6/2/1 7/3/1 8/4/1
f 9/1/1 10/2/1 11/3/1 12/4/1
f 13/1/1 14/2/1 15/3/1 16/4/1

