# Tiled2Unity generated file. Do not modify by hand.
# Wavefront file for 'Fase1_mesh_0005.obj'

# Vertices (Count = 64)
v -14464 -2048 0
v -14592 -2048 0
v -14592 -1920 0
v -14464 -1920 0
v -13184 -2432 0
v -13312 -2432 0
v -13312 -2304 0
v -13184 -2304 0
v -13440 -2560 0
v -13568 -2560 0
v -13568 -2432 0
v -13440 -2432 0
v -2560 -2816 0
v -2688 -2816 0
v -2688 -2688 0
v -2560 -2688 0
v -9600 -2816 0
v -9728 -2816 0
v -9728 -2688 0
v -9600 -2688 0
v -10624 -2816 0
v -10752 -2816 0
v -10752 -2688 0
v -10624 -2688 0
v -11648 -2816 0
v -11776 -2816 0
v -11776 -2688 0
v -11648 -2688 0
v -2816 -2944 0
v -2944 -2944 0
v -2944 -2816 0
v -2816 -2816 0
v -5632 -2944 0
v -5760 -2944 0
v -5760 -2816 0
v -5632 -2816 0
v -8832 -2944 0
v -8960 -2944 0
v -8960 -2816 0
v -8832 -2816 0
v -3072 -3072 0
v -3200 -3072 0
v -3200 -2944 0
v -3072 -2944 0
v -8192 -3072 0
v -8320 -3072 0
v -8320 -2944 0
v -8192 -2944 0
v -3328 -3200 0
v -3456 -3200 0
v -3456 -3072 0
v -3328 -3072 0
v -640 -3328 0
v -768 -3328 0
v -768 -3200 0
v -640 -3200 0
v -4992 -3328 0
v -5120 -3328 0
v -5120 -3200 0
v -4992 -3200 0
v -9728 -3328 0
v -9856 -3328 0
v -9856 -3200 0
v -9728 -3200 0

# Texture cooridinates (Count = 4)
vt 0 0
vt 1 0
vt 1 1
vt 0 1

# Normal
vn 0 0 -1

# Mesh description
g Fase1_mesh_0005

# Faces
f 1/1/1 2/2/1 3/3/1 4/4/1
f 5/1/1 6/2/1 7/3/1 8/4/1
f 9/1/1 10/2/1 11/3/1 12/4/1
f 13/1/1 14/2/1 15/3/1 16/4/1
f 17/1/1 18/2/1 19/3/1 20/4/1
f 21/1/1 22/2/1 23/3/1 24/4/1
f 25/1/1 26/2/1 27/3/1 28/4/1
f 29/1/1 30/2/1 31/3/1 32/4/1
f 33/1/1 34/2/1 35/3/1 36/4/1
f 37/1/1 38/2/1 39/3/1 40/4/1
f 41/1/1 42/2/1 43/3/1 44/4/1
f 45/1/1 46/2/1 47/3/1 48/4/1
f 49/1/1 50/2/1 51/3/1 52/4/1
f 53/1/1 54/2/1 55/3/1 56/4/1
f 57/1/1 58/2/1 59/3/1 60/4/1
f 61/1/1 62/2/1 63/3/1 64/4/1

