# Tiled2Unity generated file. Do not modify by hand.
# Wavefront file for 'Fase1_mesh_0010.obj'

# Vertices (Count = 44)
v -13952 -2304 0
v -14080 -2304 0
v -14080 -2176 0
v -13952 -2176 0
v -13312 -2688 0
v -13440 -2688 0
v -13440 -2560 0
v -13312 -2560 0
v -10240 -2944 0
v -10368 -2944 0
v -10368 -2816 0
v -10240 -2816 0
v -10368 -2944 0
v -10496 -2944 0
v -10496 -2816 0
v -10368 -2816 0
v -10496 -2944 0
v -10624 -2944 0
v -10624 -2816 0
v -10496 -2816 0
v -11264 -2944 0
v -11392 -2944 0
v -11392 -2816 0
v -11264 -2816 0
v -11392 -2944 0
v -11520 -2944 0
v -11520 -2816 0
v -11392 -2816 0
v -11520 -2944 0
v -11648 -2944 0
v -11648 -2816 0
v -11520 -2816 0
v -5376 -3072 0
v -5504 -3072 0
v -5504 -2944 0
v -5376 -2944 0
v -5504 -3072 0
v -5632 -3072 0
v -5632 -2944 0
v -5504 -2944 0
v -13952 -3072 0
v -14080 -3072 0
v -14080 -2944 0
v -13952 -2944 0

# Texture cooridinates (Count = 4)
vt 0 0
vt 1 0
vt 1 1
vt 0 1

# Normal
vn 0 0 -1

# Mesh description
g Fase1_mesh_0010

# Faces
f 1/1/1 2/2/1 3/3/1 4/4/1
f 5/1/1 6/2/1 7/3/1 8/4/1
f 9/1/1 10/2/1 11/3/1 12/4/1
f 13/1/1 14/2/1 15/3/1 16/4/1
f 17/1/1 18/2/1 19/3/1 20/4/1
f 21/1/1 22/2/1 23/3/1 24/4/1
f 25/1/1 26/2/1 27/3/1 28/4/1
f 29/1/1 30/2/1 31/3/1 32/4/1
f 33/1/1 34/2/1 35/3/1 36/4/1
f 37/1/1 38/2/1 39/3/1 40/4/1
f 41/1/1 42/2/1 43/3/1 44/4/1

