# Tiled2Unity generated file. Do not modify by hand.
# Wavefront file for 'Fase1_mesh_0009.obj'

# Vertices (Count = 20)
v -13824 -2304 0
v -13952 -2304 0
v -13952 -2176 0
v -13824 -2176 0
v -10112 -2944 0
v -10240 -2944 0
v -10240 -2816 0
v -10112 -2816 0
v -11136 -2944 0
v -11264 -2944 0
v -11264 -2816 0
v -11136 -2816 0
v -5248 -3072 0
v -5376 -3072 0
v -5376 -2944 0
v -5248 -2944 0
v -13824 -3072 0
v -13952 -3072 0
v -13952 -2944 0
v -13824 -2944 0

# Texture cooridinates (Count = 4)
vt 0 0
vt 1 0
vt 1 1
vt 0 1

# Normal
vn 0 0 -1

# Mesh description
g Fase1_mesh_0009

# Faces
f 1/1/1 2/2/1 3/3/1 4/4/1
f 5/1/1 6/2/1 7/3/1 8/4/1
f 9/1/1 10/2/1 11/3/1 12/4/1
f 13/1/1 14/2/1 15/3/1 16/4/1
f 17/1/1 18/2/1 19/3/1 20/4/1

