# Tiled2Unity generated file. Do not modify by hand.
# Wavefront file for 'Fase1_mesh_0011.obj'

# Vertices (Count = 132)
v -14080 -2432 0
v -14209 -2432 0
v -14209 -2303 0
v -14080 -2303 0
v -12928 -2560 0
v -13057 -2560 0
v -13057 -2431 0
v -12928 -2431 0
v -14080 -2560 0
v -14209 -2560 0
v -14209 -2431 0
v -14080 -2431 0
v -12928 -2688 0
v -13057 -2688 0
v -13057 -2559 0
v -12928 -2559 0
v -14080 -2688 0
v -14209 -2688 0
v -14209 -2559 0
v -14080 -2559 0
v -12928 -2816 0
v -13057 -2816 0
v -13057 -2687 0
v -12928 -2687 0
v -14080 -2816 0
v -14209 -2816 0
v -14209 -2687 0
v -14080 -2687 0
v -9216 -2944 0
v -9345 -2944 0
v -9345 -2815 0
v -9216 -2815 0
v -12928 -2944 0
v -13057 -2944 0
v -13057 -2815 0
v -12928 -2815 0
v -8576 -3072 0
v -8705 -3072 0
v -8705 -2943 0
v -8576 -2943 0
v -9216 -3072 0
v -9345 -3072 0
v -9345 -2943 0
v -9216 -2943 0
v -12928 -3072 0
v -13057 -3072 0
v -13057 -2943 0
v -12928 -2943 0
v -7936 -3200 0
v -8065 -3200 0
v -8065 -3071 0
v -7936 -3071 0
v -8576 -3200 0
v -8705 -3200 0
v -8705 -3071 0
v -8576 -3071 0
v -9216 -3200 0
v -9345 -3200 0
v -9345 -3071 0
v -9216 -3071 0
v -12928 -3200 0
v -13057 -3200 0
v -13057 -3071 0
v -12928 -3071 0
v -14080 -3200 0
v -14209 -3200 0
v -14209 -3071 0
v -14080 -3071 0
v -896 -3456 0
v -1025 -3456 0
v -1025 -3327 0
v -896 -3327 0
v -3584 -3456 0
v -3713 -3456 0
v -3713 -3327 0
v -3584 -3327 0
v -5888 -3456 0
v -6017 -3456 0
v -6017 -3327 0
v -5888 -3327 0
v -12032 -3456 0
v -12161 -3456 0
v -12161 -3327 0
v -12032 -3327 0
v -896 -3584 0
v -1025 -3584 0
v -1025 -3455 0
v -896 -3455 0
v -3584 -3584 0
v -3713 -3584 0
v -3713 -3455 0
v -3584 -3455 0
v -5888 -3584 0
v -6017 -3584 0
v -6017 -3455 0
v -5888 -3455 0
v -12032 -3584 0
v -12161 -3584 0
v -12161 -3455 0
v -12032 -3455 0
v -896 -3712 0
v -1025 -3712 0
v -1025 -3583 0
v -896 -3583 0
v -3584 -3712 0
v -3713 -3712 0
v -3713 -3583 0
v -3584 -3583 0
v -5888 -3712 0
v -6017 -3712 0
v -6017 -3583 0
v -5888 -3583 0
v -12032 -3712 0
v -12161 -3712 0
v -12161 -3583 0
v -12032 -3583 0
v -896 -3840 0
v -1025 -3840 0
v -1025 -3711 0
v -896 -3711 0
v -3584 -3840 0
v -3713 -3840 0
v -3713 -3711 0
v -3584 -3711 0
v -5888 -3840 0
v -6017 -3840 0
v -6017 -3711 0
v -5888 -3711 0
v -12032 -3840 0
v -12161 -3840 0
v -12161 -3711 0
v -12032 -3711 0

# Texture cooridinates (Count = 4)
vt 0 0
vt 1 0
vt 1 1
vt 0 1

# Normal
vn 0 0 -1

# Mesh description
g Fase1_mesh_0011

# Faces
f 1/1/1 2/2/1 3/3/1 4/4/1
f 5/1/1 6/2/1 7/3/1 8/4/1
f 9/1/1 10/2/1 11/3/1 12/4/1
f 13/1/1 14/2/1 15/3/1 16/4/1
f 17/1/1 18/2/1 19/3/1 20/4/1
f 21/1/1 22/2/1 23/3/1 24/4/1
f 25/1/1 26/2/1 27/3/1 28/4/1
f 29/1/1 30/2/1 31/3/1 32/4/1
f 33/1/1 34/2/1 35/3/1 36/4/1
f 37/1/1 38/2/1 39/3/1 40/4/1
f 41/1/1 42/2/1 43/3/1 44/4/1
f 45/1/1 46/2/1 47/3/1 48/4/1
f 49/1/1 50/2/1 51/3/1 52/4/1
f 53/1/1 54/2/1 55/3/1 56/4/1
f 57/1/1 58/2/1 59/3/1 60/4/1
f 61/1/1 62/2/1 63/3/1 64/4/1
f 65/1/1 66/2/1 67/3/1 68/4/1
f 69/1/1 70/2/1 71/3/1 72/4/1
f 73/1/1 74/2/1 75/3/1 76/4/1
f 77/1/1 78/2/1 79/3/1 80/4/1
f 81/1/1 82/2/1 83/3/1 84/4/1
f 85/1/1 86/2/1 87/3/1 88/4/1
f 89/1/1 90/2/1 91/3/1 92/4/1
f 93/1/1 94/2/1 95/3/1 96/4/1
f 97/1/1 98/2/1 99/3/1 100/4/1
f 101/1/1 102/2/1 103/3/1 104/4/1
f 105/1/1 106/2/1 107/3/1 108/4/1
f 109/1/1 110/2/1 111/3/1 112/4/1
f 113/1/1 114/2/1 115/3/1 116/4/1
f 117/1/1 118/2/1 119/3/1 120/4/1
f 121/1/1 122/2/1 123/3/1 124/4/1
f 125/1/1 126/2/1 127/3/1 128/4/1
f 129/1/1 130/2/1 131/3/1 132/4/1

