# Tiled2Unity generated file. Do not modify by hand.
# Wavefront file for 'Fase2_mesh_0011.obj'

# Vertices (Count = 44)
v -39552 -1920 0
v -39680 -1920 0
v -39680 -1792 0
v -39552 -1792 0
v -39296 -2176 0
v -39424 -2176 0
v -39424 -2048 0
v -39296 -2048 0
v -46848 -2176 0
v -46976 -2176 0
v -46976 -2048 0
v -46848 -2048 0
v -39040 -2432 0
v -39168 -2432 0
v -39168 -2304 0
v -39040 -2304 0
v -46592 -2432 0
v -46720 -2432 0
v -46720 -2304 0
v -46592 -2304 0
v -38784 -2688 0
v -38912 -2688 0
v -38912 -2560 0
v -38784 -2560 0
v -46336 -2688 0
v -46464 -2688 0
v -46464 -2560 0
v -46336 -2560 0
v -38528 -2944 0
v -38656 -2944 0
v -38656 -2816 0
v -38528 -2816 0
v -4992 -3072 0
v -5120 -3072 0
v -5120 -2944 0
v -4992 -2944 0
v -4736 -3328 0
v -4864 -3328 0
v -4864 -3200 0
v -4736 -3200 0
v -4480 -3584 0
v -4608 -3584 0
v -4608 -3456 0
v -4480 -3456 0

# Texture cooridinates (Count = 4)
vt 0 0
vt 1 0
vt 1 1
vt 0 1

# Normal
vn 0 0 -1

# Mesh description
g Fase2_mesh_0011

# Faces
f 1/1/1 2/2/1 3/3/1 4/4/1
f 5/1/1 6/2/1 7/3/1 8/4/1
f 9/1/1 10/2/1 11/3/1 12/4/1
f 13/1/1 14/2/1 15/3/1 16/4/1
f 17/1/1 18/2/1 19/3/1 20/4/1
f 21/1/1 22/2/1 23/3/1 24/4/1
f 25/1/1 26/2/1 27/3/1 28/4/1
f 29/1/1 30/2/1 31/3/1 32/4/1
f 33/1/1 34/2/1 35/3/1 36/4/1
f 37/1/1 38/2/1 39/3/1 40/4/1
f 41/1/1 42/2/1 43/3/1 44/4/1

