# Tiled2Unity generated file. Do not modify by hand.
# Wavefront file for 'Fase2_mesh_0010.obj'

# Vertices (Count = 44)
v -3328 -1408 0
v -3456 -1408 0
v -3456 -1280 0
v -3328 -1280 0
v -3584 -1664 0
v -3712 -1664 0
v -3712 -1536 0
v -3584 -1536 0
v -3840 -1920 0
v -3968 -1920 0
v -3968 -1792 0
v -3840 -1792 0
v -41088 -1920 0
v -41216 -1920 0
v -41216 -1792 0
v -41088 -1792 0
v -4096 -2176 0
v -4224 -2176 0
v -4224 -2048 0
v -4096 -2048 0
v -41344 -2176 0
v -41472 -2176 0
v -41472 -2048 0
v -41344 -2048 0
v -4352 -2432 0
v -4480 -2432 0
v -4480 -2304 0
v -4352 -2304 0
v -41472 -2432 0
v -41600 -2432 0
v -41600 -2304 0
v -41472 -2304 0
v -41728 -2688 0
v -41856 -2688 0
v -41856 -2560 0
v -41728 -2560 0
v -49792 -2816 0
v -49920 -2816 0
v -49920 -2688 0
v -49792 -2688 0
v -128 -3584 0
v -256 -3584 0
v -256 -3456 0
v -128 -3456 0

# Texture cooridinates (Count = 4)
vt 0 0
vt 1 0
vt 1 1
vt 0 1

# Normal
vn 0 0 -1

# Mesh description
g Fase2_mesh_0010

# Faces
f 1/1/1 2/2/1 3/3/1 4/4/1
f 5/1/1 6/2/1 7/3/1 8/4/1
f 9/1/1 10/2/1 11/3/1 12/4/1
f 13/1/1 14/2/1 15/3/1 16/4/1
f 17/1/1 18/2/1 19/3/1 20/4/1
f 21/1/1 22/2/1 23/3/1 24/4/1
f 25/1/1 26/2/1 27/3/1 28/4/1
f 29/1/1 30/2/1 31/3/1 32/4/1
f 33/1/1 34/2/1 35/3/1 36/4/1
f 37/1/1 38/2/1 39/3/1 40/4/1
f 41/1/1 42/2/1 43/3/1 44/4/1

